<svg width="25" height="25" viewBox="0 0 25 25" fill="none" xmlns="http://www.w3.org/2000/svg">
<g id="clarity:notification-line" clip-path="url(#clip0_1_695)">
<path id="Vector" d="M22.0069 19.0531C21.3641 18.48 20.8012 17.823 20.3336 17.0998C19.8226 16.1017 19.5166 15.0114 19.4336 13.8931V10.5998C19.438 8.84351 18.801 7.14609 17.6421 5.82642C16.4833 4.50675 14.8824 3.65568 13.1403 3.43311V2.57311C13.1403 2.33706 13.0465 2.11069 12.8796 1.94378C12.7127 1.77687 12.4863 1.68311 12.2503 1.68311C12.0142 1.68311 11.7879 1.77687 11.621 1.94378C11.454 2.11069 11.3603 2.33706 11.3603 2.57311V3.44644C9.63378 3.68506 8.05226 4.54128 6.90863 5.85651C5.765 7.17174 5.13676 8.85687 5.14028 10.5998V13.8931C5.05731 15.0114 4.7513 16.1017 4.24028 17.0998C3.78086 17.8213 3.22707 18.4783 2.59361 19.0531C2.5225 19.1156 2.4655 19.1925 2.42642 19.2787C2.38734 19.3649 2.36706 19.4584 2.36694 19.5531V20.4598C2.36694 20.6366 2.43718 20.8062 2.56221 20.9312C2.68723 21.0562 2.8568 21.1264 3.03361 21.1264H21.5669C21.7438 21.1264 21.9133 21.0562 22.0383 20.9312C22.1634 20.8062 22.2336 20.6366 22.2336 20.4598V19.5531C22.2335 19.4584 22.2132 19.3649 22.1741 19.2787C22.1351 19.1925 22.0781 19.1156 22.0069 19.0531ZM3.75361 19.7931C4.37374 19.1938 4.91985 18.5223 5.38028 17.7931C6.02414 16.5877 6.3994 15.2573 6.48028 13.8931V10.5998C6.45384 9.81846 6.58489 9.03982 6.86564 8.31022C7.14639 7.58061 7.57108 6.91496 8.11444 6.35291C8.6578 5.79085 9.3087 5.34388 10.0284 5.03862C10.7481 4.73336 11.5219 4.57604 12.3036 4.57604C13.0854 4.57604 13.8591 4.73336 14.5788 5.03862C15.2985 5.34388 15.9494 5.79085 16.4928 6.35291C17.0361 6.91496 17.4608 7.58061 17.7416 8.31022C18.0223 9.03982 18.1534 9.81846 18.1269 10.5998V13.8931C18.2078 15.2573 18.5831 16.5877 19.2269 17.7931C19.6874 18.5223 20.2335 19.1938 20.8536 19.7931H3.75361Z" fill="black"/>
<path id="Vector_2" d="M12.3331 23.353C12.753 23.3433 13.156 23.1855 13.4708 22.9073C13.7856 22.6291 13.9918 22.2486 14.0531 21.833H10.5464C10.6094 22.2599 10.8253 22.6493 11.1539 22.9289C11.4826 23.2085 11.9016 23.3592 12.3331 23.353Z" fill="#0B090A"/>
</g>
<defs>
<clipPath id="clip0_1_695">
<rect width="24" height="24" fill="white" transform="translate(0.333496 0.5)"/>
</clipPath>
</defs>
</svg>
