<svg width="33" height="33" viewBox="0 0 33 33" fill="none" xmlns="http://www.w3.org/2000/svg">
<g id="material-symbols-light:search">
<rect width="32" height="32" transform="translate(0.666748 0.5)" fill="white"/>
<path id="Vector" d="M26.6463 27.3721L18.297 19.0227C17.6303 19.5907 16.8637 20.0303 15.997 20.3414C15.1303 20.6525 14.2592 20.8081 13.3837 20.8081C11.2485 20.8081 9.44143 20.069 7.96232 18.5907C6.48321 17.1125 5.74365 15.3058 5.74365 13.1707C5.74365 11.0356 6.48232 9.22806 7.95965 7.74806C9.43699 6.26806 11.2432 5.52717 13.3783 5.52539C15.5134 5.52362 17.3214 6.26317 18.8023 7.74406C20.2832 9.22495 21.0237 11.0325 21.0237 13.1667C21.0237 14.0929 20.8597 14.9894 20.5317 15.8561C20.2037 16.7227 19.7725 17.4641 19.2383 18.0801L27.5877 26.4281L26.6463 27.3721ZM13.385 19.4734C15.1539 19.4734 16.6472 18.8645 17.865 17.6467C19.0828 16.4289 19.6917 14.9352 19.6917 13.1654C19.6917 11.3956 19.0828 9.90228 17.865 8.68539C16.6472 7.4685 15.1539 6.85962 13.385 6.85873C11.6161 6.85784 10.1223 7.46673 8.90365 8.68539C7.68499 9.90406 7.0761 11.3974 7.07699 13.1654C7.07787 14.9334 7.68676 16.4267 8.90365 17.6454C10.1205 18.8641 11.6139 19.473 13.3837 19.4721" fill="#0B090A"/>
</g>
</svg>
