<svg width="25" height="26" viewBox="0 0 25 26" fill="none" xmlns="http://www.w3.org/2000/svg">
<g id="mingcute:up-line" opacity="0.8">
<g id="Group">
<path id="Vector" fill-rule="evenodd" clip-rule="evenodd" d="M16.5697 12.253C16.7592 12.4385 16.8673 12.6917 16.8702 12.9568C16.8731 13.222 16.7705 13.4774 16.5851 13.667L10.9898 19.385C10.8032 19.5692 10.5517 19.6727 10.2895 19.6733C10.0273 19.6738 9.77532 19.5714 9.58791 19.388C9.4005 19.2046 9.29262 18.955 9.28749 18.6928C9.28237 18.4307 9.38042 18.177 9.56052 17.9864L14.4565 12.983L9.45313 8.08699C9.26893 7.90038 9.1654 7.64888 9.16484 7.38668C9.16427 7.12447 9.26671 6.87253 9.4501 6.68513C9.63349 6.49772 9.88314 6.38983 10.1453 6.38471C10.4075 6.37959 10.6611 6.47764 10.8517 6.65774L16.5697 12.253Z" fill="black"/>
</g>
</g>
</svg>
