<svg width="25" height="25" viewBox="0 0 25 25" fill="none" xmlns="http://www.w3.org/2000/svg">
<g id="ph:heart">
<path id="Vector" d="M17.021 4.25C15.0851 4.25 13.3901 5.0825 12.3335 6.48969C11.2769 5.0825 9.58193 4.25 7.646 4.25C6.10496 4.25174 4.62754 4.86468 3.53786 5.95436C2.44818 7.04404 1.83523 8.52146 1.8335 10.0625C1.8335 16.625 11.5638 21.9369 11.9782 22.1562C12.0874 22.215 12.2095 22.2458 12.3335 22.2458C12.4575 22.2458 12.5796 22.215 12.6888 22.1562C13.1032 21.9369 22.8335 16.625 22.8335 10.0625C22.8318 8.52146 22.2188 7.04404 21.1291 5.95436C20.0395 4.86468 18.562 4.25174 17.021 4.25ZM12.3335 20.6375C10.6216 19.64 3.3335 15.0959 3.3335 10.0625C3.33498 8.91921 3.78981 7.82317 4.59824 7.01475C5.40667 6.20632 6.50271 5.75149 7.646 5.75C9.46943 5.75 11.0004 6.72125 11.6397 8.28125C11.6963 8.41881 11.7924 8.53646 11.9159 8.61926C12.0394 8.70207 12.1848 8.74627 12.3335 8.74627C12.4822 8.74627 12.6276 8.70207 12.7511 8.61926C12.8746 8.53646 12.9707 8.41881 13.0272 8.28125C13.6666 6.71844 15.1976 5.75 17.021 5.75C18.1643 5.75149 19.2603 6.20632 20.0688 7.01475C20.8772 7.82317 21.332 8.91921 21.3335 10.0625C21.3335 15.0884 14.0435 19.6391 12.3335 20.6375Z" fill="black"/>
</g>
</svg>
