<svg width="25" height="25" viewBox="0 0 25 25" fill="none" xmlns="http://www.w3.org/2000/svg">
<g id="uil:cart">
<path id="Vector" d="M19.3335 7.5H16.3335V6.5C16.3335 5.43913 15.9121 4.42172 15.1619 3.67157C14.4118 2.92143 13.3944 2.5 12.3335 2.5C11.2726 2.5 10.2552 2.92143 9.50507 3.67157C8.75492 4.42172 8.3335 5.43913 8.3335 6.5V7.5H5.3335C5.06828 7.5 4.81393 7.60536 4.62639 7.79289C4.43885 7.98043 4.3335 8.23478 4.3335 8.5V19.5C4.3335 20.2956 4.64957 21.0587 5.21218 21.6213C5.77478 22.1839 6.53785 22.5 7.3335 22.5H17.3335C18.1291 22.5 18.8922 22.1839 19.4548 21.6213C20.0174 21.0587 20.3335 20.2956 20.3335 19.5V8.5C20.3335 8.23478 20.2281 7.98043 20.0406 7.79289C19.8531 7.60536 19.5987 7.5 19.3335 7.5ZM10.3335 6.5C10.3335 5.96957 10.5442 5.46086 10.9193 5.08579C11.2944 4.71071 11.8031 4.5 12.3335 4.5C12.8639 4.5 13.3726 4.71071 13.7477 5.08579C14.1228 5.46086 14.3335 5.96957 14.3335 6.5V7.5H10.3335V6.5ZM18.3335 19.5C18.3335 19.7652 18.2281 20.0196 18.0406 20.2071C17.8531 20.3946 17.5987 20.5 17.3335 20.5H7.3335C7.06828 20.5 6.81393 20.3946 6.62639 20.2071C6.43885 20.0196 6.3335 19.7652 6.3335 19.5V9.5H8.3335V10.5C8.3335 10.7652 8.43885 11.0196 8.62639 11.2071C8.81393 11.3946 9.06828 11.5 9.3335 11.5C9.59871 11.5 9.85307 11.3946 10.0406 11.2071C10.2281 11.0196 10.3335 10.7652 10.3335 10.5V9.5H14.3335V10.5C14.3335 10.7652 14.4389 11.0196 14.6264 11.2071C14.8139 11.3946 15.0683 11.5 15.3335 11.5C15.5987 11.5 15.8531 11.3946 16.0406 11.2071C16.2281 11.0196 16.3335 10.7652 16.3335 10.5V9.5H18.3335V19.5Z" fill="black"/>
</g>
</svg>
