<svg width="25" height="25" viewBox="0 0 25 25" fill="none" xmlns="http://www.w3.org/2000/svg">
<g id="clarity:notification-line" clip-path="url(#clip0_1_1046)">
<path id="Vector" d="M22.0067 19.0531C21.3638 18.48 20.801 17.823 20.3334 17.0998C19.8223 16.1017 19.5163 15.0114 19.4334 13.8931V10.5998C19.4378 8.84351 18.8007 7.14609 17.6419 5.82642C16.483 4.50675 14.8821 3.65568 13.14 3.43311V2.57311C13.14 2.33706 13.0463 2.11069 12.8794 1.94378C12.7124 1.77687 12.4861 1.68311 12.25 1.68311C12.014 1.68311 11.7876 1.77687 11.6207 1.94378C11.4538 2.11069 11.36 2.33706 11.36 2.57311V3.44644C9.63354 3.68506 8.05201 4.54128 6.90839 5.85651C5.76476 7.17174 5.13652 8.85687 5.14003 10.5998V13.8931C5.05707 15.0114 4.75106 16.1017 4.24003 17.0998C3.78062 17.8213 3.22683 18.4783 2.59337 19.0531C2.52225 19.1156 2.46526 19.1925 2.42618 19.2787C2.38709 19.3649 2.36682 19.4584 2.3667 19.5531V20.4598C2.3667 20.6366 2.43694 20.8062 2.56196 20.9312C2.68699 21.0562 2.85656 21.1264 3.03337 21.1264H21.5667C21.7435 21.1264 21.9131 21.0562 22.0381 20.9312C22.1631 20.8062 22.2334 20.6366 22.2334 20.4598V19.5531C22.2332 19.4584 22.213 19.3649 22.1739 19.2787C22.1348 19.1925 22.0778 19.1156 22.0067 19.0531ZM3.75337 19.7931C4.3735 19.1938 4.91961 18.5223 5.38003 17.7931C6.02389 16.5877 6.39915 15.2573 6.48003 13.8931V10.5998C6.45359 9.81846 6.58465 9.03982 6.8654 8.31022C7.14614 7.58061 7.57084 6.91496 8.1142 6.35291C8.65755 5.79085 9.30846 5.34388 10.0282 5.03862C10.7478 4.73336 11.5216 4.57604 12.3034 4.57604C13.0851 4.57604 13.8589 4.73336 14.5786 5.03862C15.2983 5.34388 15.9492 5.79085 16.4925 6.35291C17.0359 6.91496 17.4606 7.58061 17.7413 8.31022C18.0221 9.03982 18.1531 9.81846 18.1267 10.5998V13.8931C18.2076 15.2573 18.5828 16.5877 19.2267 17.7931C19.6871 18.5223 20.2332 19.1938 20.8534 19.7931H3.75337Z" fill="black"/>
<path id="Vector_2" d="M12.3329 23.353C12.7529 23.3433 13.1559 23.1855 13.4707 22.9073C13.7854 22.6291 13.9917 22.2486 14.0529 21.833H10.5463C10.6092 22.2599 10.8251 22.6493 11.1538 22.9289C11.4825 23.2085 11.9015 23.3592 12.3329 23.353Z" fill="#0B090A"/>
</g>
<defs>
<clipPath id="clip0_1_1046">
<rect width="24" height="24" fill="white" transform="translate(0.333374 0.5)"/>
</clipPath>
</defs>
</svg>
