<svg width="33" height="33" viewBox="0 0 33 33" fill="none" xmlns="http://www.w3.org/2000/svg">
<g id="material-symbols-light:search">
<rect width="32" height="32" transform="translate(0.666748 0.5)" fill="white"/>
<path id="Vector" d="M26.6466 27.3721L18.2972 19.0227C17.6306 19.5907 16.8639 20.0303 15.9972 20.3414C15.1306 20.6525 14.2595 20.8081 13.3839 20.8081C11.2488 20.8081 9.44167 20.069 7.96256 18.5907C6.48345 17.1125 5.7439 15.3058 5.7439 13.1707C5.7439 11.0356 6.48256 9.22806 7.9599 7.74806C9.43723 6.26806 11.2435 5.52717 13.3786 5.52539C15.5137 5.52362 17.3217 6.26317 18.8026 7.74406C20.2835 9.22495 21.0239 11.0325 21.0239 13.1667C21.0239 14.0929 20.8599 14.9894 20.5319 15.8561C20.2039 16.7227 19.7728 17.4641 19.2386 18.0801L27.5879 26.4281L26.6466 27.3721ZM13.3852 19.4734C15.1541 19.4734 16.6475 18.8645 17.8652 17.6467C19.083 16.4289 19.6919 14.9352 19.6919 13.1654C19.6919 11.3956 19.083 9.90228 17.8652 8.68539C16.6475 7.4685 15.1541 6.85962 13.3852 6.85873C11.6163 6.85784 10.1226 7.46673 8.9039 8.68539C7.68523 9.90406 7.07634 11.3974 7.07723 13.1654C7.07812 14.9334 7.68701 16.4267 8.9039 17.6454C10.1208 18.8641 11.6141 19.473 13.3839 19.4721" fill="#0B090A"/>
</g>
</svg>
