<svg width="25" height="25" viewBox="0 0 25 25" fill="none" xmlns="http://www.w3.org/2000/svg">
<g id="ph:heart">
<path id="Vector" d="M17.0209 4.25C15.0849 4.25 13.3899 5.0825 12.3334 6.48969C11.2768 5.0825 9.58181 4.25 7.64587 4.25C6.10484 4.25174 4.62741 4.86468 3.53773 5.95436C2.44806 7.04404 1.83511 8.52146 1.83337 10.0625C1.83337 16.625 11.5637 21.9369 11.9781 22.1562C12.0873 22.215 12.2094 22.2458 12.3334 22.2458C12.4574 22.2458 12.5795 22.215 12.6887 22.1562C13.1031 21.9369 22.8334 16.625 22.8334 10.0625C22.8316 8.52146 22.2187 7.04404 21.129 5.95436C20.0393 4.86468 18.5619 4.25174 17.0209 4.25ZM12.3334 20.6375C10.6215 19.64 3.33337 15.0959 3.33337 10.0625C3.33486 8.91921 3.78969 7.82317 4.59812 7.01475C5.40655 6.20632 6.50258 5.75149 7.64587 5.75C9.46931 5.75 11.0002 6.72125 11.6396 8.28125C11.6961 8.41881 11.7923 8.53646 11.9158 8.61926C12.0393 8.70207 12.1847 8.74627 12.3334 8.74627C12.4821 8.74627 12.6274 8.70207 12.751 8.61926C12.8745 8.53646 12.9706 8.41881 13.0271 8.28125C13.6665 6.71844 15.1974 5.75 17.0209 5.75C18.1642 5.75149 19.2602 6.20632 20.0686 7.01475C20.8771 7.82317 21.3319 8.91921 21.3334 10.0625C21.3334 15.0884 14.0434 19.6391 12.3334 20.6375Z" fill="black"/>
</g>
</svg>
