<svg width="25" height="25" viewBox="0 0 25 25" fill="none" xmlns="http://www.w3.org/2000/svg">
<g id="clarity:notification-line" clip-path="url(#clip0_1_527)">
<path id="Vector" d="M22.0066 19.0536C21.3637 18.4805 20.8009 17.8235 20.3332 17.1003C19.8222 16.1022 19.5162 15.0118 19.4332 13.8936V10.6003C19.4377 8.844 18.8006 7.14658 17.6417 5.82691C16.4829 4.50724 14.882 3.65617 13.1399 3.43359V2.57359C13.1399 2.33755 13.0461 2.11118 12.8792 1.94427C12.7123 1.77736 12.486 1.68359 12.2499 1.68359C12.0139 1.68359 11.7875 1.77736 11.6206 1.94427C11.4537 2.11118 11.3599 2.33755 11.3599 2.57359V3.44693C9.63342 3.68555 8.05189 4.54176 6.90826 5.857C5.76463 7.17223 5.1364 8.85736 5.13991 10.6003V13.8936C5.05695 15.0118 4.75093 16.1022 4.23991 17.1003C3.7805 17.8218 3.22671 18.4788 2.59324 19.0536C2.52213 19.1161 2.46514 19.193 2.42606 19.2792C2.38697 19.3654 2.3667 19.4589 2.36658 19.5536V20.4603C2.36658 20.6371 2.43682 20.8066 2.56184 20.9317C2.68686 21.0567 2.85643 21.1269 3.03324 21.1269H21.5666C21.7434 21.1269 21.913 21.0567 22.038 20.9317C22.163 20.8066 22.2332 20.6371 22.2332 20.4603V19.5536C22.2331 19.4589 22.2129 19.3654 22.1738 19.2792C22.1347 19.193 22.0777 19.1161 22.0066 19.0536ZM3.75324 19.7936C4.37337 19.1943 4.91949 18.5228 5.37991 17.7936C6.02377 16.5882 6.39903 15.2578 6.47991 13.8936V10.6003C6.45347 9.81895 6.58453 9.04031 6.86527 8.31071C7.14602 7.5811 7.57072 6.91545 8.11408 6.35339C8.65743 5.79134 9.30834 5.34437 10.028 5.03911C10.7477 4.73385 11.5215 4.57653 12.3032 4.57653C13.085 4.57653 13.8588 4.73385 14.5785 5.03911C15.2982 5.34437 15.9491 5.79134 16.4924 6.35339C17.0358 6.91545 17.4605 7.5811 17.7412 8.31071C18.022 9.04031 18.153 9.81895 18.1266 10.6003V13.8936C18.2075 15.2578 18.5827 16.5882 19.2266 17.7936C19.687 18.5228 20.2331 19.1943 20.8532 19.7936H3.75324Z" fill="black"/>
<path id="Vector_2" d="M12.3329 23.353C12.7529 23.3433 13.1559 23.1855 13.4707 22.9073C13.7854 22.6291 13.9917 22.2486 14.0529 21.833H10.5463C10.6092 22.2599 10.8251 22.6493 11.1538 22.9289C11.4825 23.2085 11.9015 23.3592 12.3329 23.353Z" fill="#0B090A"/>
</g>
<defs>
<clipPath id="clip0_1_527">
<rect width="24" height="24" fill="white" transform="translate(0.333374 0.5)"/>
</clipPath>
</defs>
</svg>
