<svg width="33" height="33" viewBox="0 0 33 33" fill="none" xmlns="http://www.w3.org/2000/svg">
<g id="material-symbols-light:search">
<rect width="32" height="32" transform="translate(0.666626 0.5)" fill="white"/>
<path id="Vector" d="M26.6464 27.3721L18.2971 19.0227C17.6304 19.5907 16.8638 20.0303 15.9971 20.3414C15.1304 20.6525 14.2593 20.8081 13.3838 20.8081C11.2487 20.8081 9.44155 20.069 7.96244 18.5907C6.48333 17.1125 5.74377 15.3058 5.74377 13.1707C5.74377 11.0356 6.48244 9.22806 7.95977 7.74806C9.43711 6.26806 11.2433 5.52717 13.3784 5.52539C15.5136 5.52362 17.3216 6.26317 18.8024 7.74406C20.2833 9.22495 21.0238 11.0325 21.0238 13.1667C21.0238 14.0929 20.8598 14.9894 20.5318 15.8561C20.2038 16.7227 19.7727 17.4641 19.2384 18.0801L27.5878 26.4281L26.6464 27.3721ZM13.3851 19.4734C15.154 19.4734 16.6473 18.8645 17.8651 17.6467C19.0829 16.4289 19.6918 14.9352 19.6918 13.1654C19.6918 11.3956 19.0829 9.90228 17.8651 8.68539C16.6473 7.4685 15.154 6.85962 13.3851 6.85873C11.6162 6.85784 10.1224 7.46673 8.90377 8.68539C7.68511 9.90406 7.07622 11.3974 7.07711 13.1654C7.078 14.9334 7.68689 16.4267 8.90377 17.6454C10.1207 18.8641 11.614 19.473 13.3838 19.4721" fill="#0B090A"/>
</g>
</svg>
