<svg width="24" height="25" viewBox="0 0 24 25" fill="none" xmlns="http://www.w3.org/2000/svg">
<g id="mingcute:location-3-fill" opacity="0.8" clip-path="url(#clip0_1_491)">
<g id="Group">
<path id="Vector" fill-rule="evenodd" clip-rule="evenodd" d="M17.5533 16.606C17.7723 16.4964 18.0239 16.471 18.2604 16.5346C18.4969 16.5982 18.7018 16.7464 18.8363 16.951L18.8943 17.053L20.8943 21.053C20.9657 21.1956 21.0019 21.3533 20.9999 21.5128C20.9979 21.6723 20.9578 21.829 20.883 21.9698C20.8081 22.1106 20.7006 22.2315 20.5695 22.3224C20.4384 22.4132 20.2875 22.4714 20.1293 22.492L20.0003 22.5H4.00032C3.84079 22.5001 3.68356 22.4619 3.54177 22.3888C3.39997 22.3157 3.27772 22.2098 3.18523 22.0798C3.09274 21.9498 3.03268 21.7996 3.01009 21.6417C2.98749 21.4837 3.003 21.3227 3.05532 21.172L3.10532 21.052L5.10532 17.052C5.21742 16.8203 5.41455 16.6407 5.65568 16.5507C5.89681 16.4606 6.16338 16.467 6.39991 16.5686C6.63644 16.6701 6.82472 16.8589 6.92557 17.0957C7.02641 17.3325 7.03205 17.5991 6.94132 17.84L6.89432 17.947L5.61832 20.5H18.3823L17.1063 17.947C16.9879 17.7099 16.9685 17.4354 17.0523 17.184C17.1361 16.9325 17.3163 16.7246 17.5533 16.606ZM12.0003 2.5C13.8568 2.5 15.6373 3.2375 16.9501 4.55025C18.2628 5.86301 19.0003 7.64348 19.0003 9.5C19.0003 11.882 17.7113 13.817 16.3773 15.19C15.6405 15.9385 14.8305 16.6112 13.9593 17.198L13.5863 17.444L13.2543 17.653L13.1053 17.743L12.8483 17.891C12.3203 18.191 11.6803 18.191 11.1523 17.891L10.8953 17.742L10.5853 17.553L10.4143 17.444L10.0413 17.198C9.17018 16.6112 8.36013 15.9385 7.62332 15.19C6.28932 13.817 5.00032 11.882 5.00032 9.5C5.00032 7.64348 5.73782 5.86301 7.05057 4.55025C8.36333 3.2375 10.1438 2.5 12.0003 2.5ZM12.0003 7.5C11.4699 7.5 10.9612 7.71071 10.5861 8.08579C10.211 8.46086 10.0003 8.96957 10.0003 9.5C10.0003 10.0304 10.211 10.5391 10.5861 10.9142C10.9612 11.2893 11.4699 11.5 12.0003 11.5C12.5308 11.5 13.0395 11.2893 13.4145 10.9142C13.7896 10.5391 14.0003 10.0304 14.0003 9.5C14.0003 8.96957 13.7896 8.46086 13.4145 8.08579C13.0395 7.71071 12.5308 7.5 12.0003 7.5Z" fill="#601C31"/>
</g>
</g>
<defs>
<clipPath id="clip0_1_491">
<rect width="24" height="24" fill="white" transform="translate(0 0.5)"/>
</clipPath>
</defs>
</svg>
