<svg width="25" height="25" viewBox="0 0 25 25" fill="none" xmlns="http://www.w3.org/2000/svg">
<g id="mingcute:up-line" opacity="0.65">
<g id="Group">
<path id="Vector" fill-rule="evenodd" clip-rule="evenodd" d="M13.619 16.2108C13.4304 16.3972 13.1755 16.5011 12.9103 16.4996C12.6452 16.4981 12.3915 16.3913 12.205 16.2028L6.58002 10.514C6.39893 10.3243 6.29956 10.0712 6.30332 9.809C6.30708 9.54682 6.41366 9.29661 6.60011 9.11225C6.78657 8.92789 7.03797 8.82414 7.30017 8.82334C7.56238 8.82254 7.81441 8.92476 8.00198 9.10798L12.924 14.0858L17.9018 9.16387C18.0914 8.98278 18.3446 8.88342 18.6068 8.88717C18.869 8.89093 19.1192 8.99752 19.3035 9.18397C19.4879 9.37042 19.5917 9.62182 19.5925 9.88403C19.5933 10.1462 19.491 10.3983 19.3078 10.5858L13.619 16.2108Z" fill="#0B090A"/>
</g>
</g>
</svg>
