<svg width="25" height="25" viewBox="0 0 25 25" fill="none" xmlns="http://www.w3.org/2000/svg">
<g id="uil:cart">
<path id="Vector" d="M19.3334 7.5H16.3334V6.5C16.3334 5.43913 15.9119 4.42172 15.1618 3.67157C14.4117 2.92143 13.3942 2.5 12.3334 2.5C11.2725 2.5 10.2551 2.92143 9.50495 3.67157C8.7548 4.42172 8.33337 5.43913 8.33337 6.5V7.5H5.33337C5.06816 7.5 4.8138 7.60536 4.62627 7.79289C4.43873 7.98043 4.33337 8.23478 4.33337 8.5V19.5C4.33337 20.2956 4.64944 21.0587 5.21205 21.6213C5.77466 22.1839 6.53772 22.5 7.33337 22.5H17.3334C18.129 22.5 18.8921 22.1839 19.4547 21.6213C20.0173 21.0587 20.3334 20.2956 20.3334 19.5V8.5C20.3334 8.23478 20.228 7.98043 20.0405 7.79289C19.8529 7.60536 19.5986 7.5 19.3334 7.5ZM10.3334 6.5C10.3334 5.96957 10.5441 5.46086 10.9192 5.08579C11.2942 4.71071 11.8029 4.5 12.3334 4.5C12.8638 4.5 13.3725 4.71071 13.7476 5.08579C14.1227 5.46086 14.3334 5.96957 14.3334 6.5V7.5H10.3334V6.5ZM18.3334 19.5C18.3334 19.7652 18.228 20.0196 18.0405 20.2071C17.8529 20.3946 17.5986 20.5 17.3334 20.5H7.33337C7.06816 20.5 6.8138 20.3946 6.62627 20.2071C6.43873 20.0196 6.33337 19.7652 6.33337 19.5V9.5H8.33337V10.5C8.33337 10.7652 8.43873 11.0196 8.62627 11.2071C8.8138 11.3946 9.06816 11.5 9.33337 11.5C9.59859 11.5 9.85294 11.3946 10.0405 11.2071C10.228 11.0196 10.3334 10.7652 10.3334 10.5V9.5H14.3334V10.5C14.3334 10.7652 14.4387 11.0196 14.6263 11.2071C14.8138 11.3946 15.0682 11.5 15.3334 11.5C15.5986 11.5 15.8529 11.3946 16.0405 11.2071C16.228 11.0196 16.3334 10.7652 16.3334 10.5V9.5H18.3334V19.5Z" fill="black"/>
</g>
</svg>
